<svg width="224" height="224" viewBox="0 0 224 224" fill="none" xmlns="http://www.w3.org/2000/svg">
<path d="M116.579 212.698H212.698V199.592C212.698 172.242 184.212 197.057 162.716 103.996L160.531 94.4712C160.144 91.7582 161.462 89.0856 163.851 87.7429C180.441 79.3036 189.068 60.5783 184.701 42.4847C180.333 24.3911 164.115 11.6627 145.502 11.7209C126.889 11.6627 110.67 24.3911 106.303 42.4847C101.936 60.5783 110.562 79.3036 127.152 87.7429C129.541 89.0856 130.86 91.7582 130.472 94.4712L128.288 103.996C125.658 115.67 122.302 127.168 118.239 138.424M21.2455 125.317H89.5778C89.5778 125.317 99.1023 125.317 99.1023 134.841V203.174C99.1023 203.174 99.1023 212.698 89.5778 212.698H21.2455C21.2455 212.698 11.7209 212.698 11.7209 203.174V134.841C11.7209 134.841 11.7209 125.317 21.2455 125.317ZM55.4117 166.823C56.6182 166.823 57.5962 167.801 57.5962 169.008C57.5962 170.215 56.6182 171.192 55.4117 171.192C54.2052 171.192 53.2271 170.215 53.2271 169.008C53.2271 167.801 54.2052 166.823 55.4117 166.823ZM33.5663 147.162C34.7728 147.162 35.7508 148.14 35.7508 149.347C35.7508 150.553 34.7728 151.531 33.5663 151.531C32.3598 151.531 31.3817 150.553 31.3817 149.347C31.3817 148.14 32.3598 147.162 33.5663 147.162ZM75.0724 147.162C76.279 147.162 77.2571 148.14 77.2571 149.347C77.2571 150.553 76.279 151.531 75.0724 151.531C73.8659 151.531 72.888 150.553 72.888 149.347C72.888 148.14 73.8659 147.162 75.0724 147.162ZM33.5663 188.669C34.7728 188.669 35.7508 189.646 35.7508 190.854C35.7508 192.059 34.7728 193.037 33.5663 193.037C32.3598 193.037 31.3817 192.059 31.3817 190.854C31.3817 189.646 32.3598 188.669 33.5663 188.669ZM75.0724 188.669C76.279 188.669 77.2571 189.646 77.2571 190.854C77.2571 192.059 76.279 193.037 75.0724 193.037C73.8659 193.037 72.888 192.059 72.888 190.854C72.888 189.646 73.8659 188.669 75.0724 188.669Z" stroke="#938368" stroke-width="3" stroke-miterlimit="10"/>
</svg>
